/home/lightdesk/Projects/AI-Detector/.venv/lib/python3.12/site-packages/transformers/utils/generic.py:441: FutureWarning: `torch.utils._pytree._register_pytree_node` is deprecated. Please use `torch.utils._pytree.register_pytree_node` instead.
  _torch_pytree._register_pytree_node(
/home/lightdesk/Projects/AI-Detector/.venv/lib/python3.12/site-packages/transformers/utils/generic.py:309: FutureWarning: `torch.utils._pytree._register_pytree_node` is deprecated. Please use `torch.utils._pytree.register_pytree_node` instead.
  _torch_pytree._register_pytree_node(
/home/lightdesk/Projects/AI-Detector/.venv/lib/python3.12/site-packages/transformers/utils/generic.py:309: FutureWarning: `torch.utils._pytree._register_pytree_node` is deprecated. Please use `torch.utils._pytree.register_pytree_node` instead.
  _torch_pytree._register_pytree_node(
/home/lightdesk/Projects/AI-Detector/.venv/lib/python3.12/site-packages/albumentations/__init__.py:13: UserWarning: A new version of Albumentations is available: 2.0.8 (you have 1.4.18). Upgrade using: pip install -U albumentations. To disable automatic update checks, set the environment variable NO_ALBUMENTATIONS_UPDATE to 1.
  check_for_updates()
/home/lightdesk/Projects/AI-Video/UniversalFakeDetect/models/clip/clip.py:6: UserWarning: pkg_resources is deprecated as an API. See https://setuptools.pypa.io/en/latest/pkg_resources.html. The pkg_resources package is slated for removal as early as 2025-11-30. Refrain from using this package or pin to Setuptools<81.
  from pkg_resources import packaging
/home/lightdesk/Projects/AI-Video/pipeline_production.py:190: FutureWarning: You are using `torch.load` with `weights_only=False` (the current default value), which uses the default pickle module implicitly. It is possible to construct malicious pickle data which will execute arbitrary code during unpickling (See https://github.com/pytorch/pytorch/blob/main/SECURITY.md#untrusted-models for more details). In a future release, the default value for `weights_only` will be flipped to `True`. This limits the functions that could be executed during unpickling. Arbitrary objects will no longer be allowed to be loaded via this mode unless they are explicitly allowlisted by the user via `torch.serialization.add_safe_globals`. We recommend you start setting `weights_only=True` for any use case where you don't have full control of the loaded file. Please open an issue on GitHub for any issues related to this experimental feature.
  checkpoint = torch.load(weights_path, map_location=device)
/home/lightdesk/Projects/AI-Detector/.venv/lib/python3.12/site-packages/torchvision/models/_utils.py:208: UserWarning: The parameter 'pretrained' is deprecated since 0.13 and may be removed in the future, please use 'weights' instead.
  warnings.warn(
/home/lightdesk/Projects/AI-Detector/.venv/lib/python3.12/site-packages/torchvision/models/_utils.py:223: UserWarning: Arguments other than a weight enum or `None` for 'weights' are deprecated since 0.13 and may be removed in the future. The current behavior is equivalent to passing `weights=None`.
  warnings.warn(msg)
/home/lightdesk/Projects/AI-Detector/.venv/lib/python3.12/site-packages/torch/hub.py:870: FutureWarning: Falling back to the old format < 1.6. This support will be deprecated in favor of default zipfile format introduced in 1.6. Please redo torch.save() to save it in the new zipfile format.
  return _legacy_zip_load(cached_file, model_dir, map_location, weights_only)
/home/lightdesk/Projects/AI-Video/syncnet_python/SyncNetInstance.py:202: FutureWarning: You are using `torch.load` with `weights_only=False` (the current default value), which uses the default pickle module implicitly. It is possible to construct malicious pickle data which will execute arbitrary code during unpickling (See https://github.com/pytorch/pytorch/blob/main/SECURITY.md#untrusted-models for more details). In a future release, the default value for `weights_only` will be flipped to `True`. This limits the functions that could be executed during unpickling. Arbitrary objects will no longer be allowed to be loaded via this mode unless they are explicitly allowlisted by the user via `torch.serialization.add_safe_globals`. We recommend you start setting `weights_only=True` for any use case where you don't have full control of the loaded file. Please open an issue on GitHub for any issues related to this experimental feature.
  loaded_state = torch.load(path, map_location=lambda storage, loc: storage);
/home/lightdesk/Projects/AI-Video/pipeline_production.py:224: UserWarning: Creating a tensor from a list of numpy.ndarrays is extremely slow. Please consider converting the list to a single numpy.ndarray with numpy.array() before converting to a tensor. (Triggered internally at ../torch/csrc/utils/tensor_new.cpp:278.)
  faces_tensor = torch.tensor(face_list).float() / 255.0
/home/lightdesk/Projects/AI-Detector/.venv/lib/python3.12/site-packages/torch/nn/modules/linear.py:125: UserWarning: Attempting to use hipBLASLt on an unsupported architecture! Overriding blas backend to hipblas (Triggered internally at ../aten/src/ATen/Context.cpp:296.)
  return F.linear(input, self.weight, self.bias)
ffmpeg version 6.1.1-3ubuntu5+esm6 Copyright (c) 2000-2023 the FFmpeg developers
  built with gcc 13 (Ubuntu 13.3.0-6ubuntu2~24.04)
  configuration: --prefix=/usr --extra-version=3ubuntu5+esm6 --toolchain=hardened --libdir=/usr/lib/x86_64-linux-gnu --incdir=/usr/include/x86_64-linux-gnu --arch=amd64 --enable-gpl --disable-stripping --disable-omx --enable-gnutls --enable-libaom --enable-libass --enable-libbs2b --enable-libcaca --enable-libcdio --enable-libcodec2 --enable-libdav1d --enable-libflite --enable-libfontconfig --enable-libfreetype --enable-libfribidi --enable-libglslang --enable-libgme --enable-libgsm --enable-libharfbuzz --enable-libmp3lame --enable-libmysofa --enable-libopenjpeg --enable-libopenmpt --enable-libopus --enable-librubberband --enable-libshine --enable-libsnappy --enable-libsoxr --enable-libspeex --enable-libtheora --enable-libtwolame --enable-libvidstab --enable-libvorbis --enable-libvpx --enable-libwebp --enable-libx265 --enable-libxml2 --enable-libxvid --enable-libzimg --enable-openal --enable-opencl --enable-opengl --disable-sndio --enable-libvpl --disable-libmfx --enable-libdc1394 --enable-libdrm --enable-libiec61883 --enable-chromaprint --enable-frei0r --enable-ladspa --enable-libbluray --enable-libjack --enable-libpulse --enable-librabbitmq --enable-librist --enable-libsrt --enable-libssh --enable-libsvtav1 --enable-libx264 --enable-libzmq --enable-libzvbi --enable-lv2 --enable-sdl2 --enable-libplacebo --enable-librav1e --enable-pocketsphinx --enable-librsvg --enable-libjxl --enable-shared
  libavutil      58. 29.100 / 58. 29.100
  libavcodec     60. 31.102 / 60. 31.102
  libavformat    60. 16.100 / 60. 16.100
  libavdevice    60.  3.100 / 60.  3.100
  libavfilter     9. 12.100 /  9. 12.100
  libswscale      7.  5.100 /  7.  5.100
  libswresample   4. 12.100 /  4. 12.100
  libpostproc    57.  3.100 / 57.  3.100
Input #0, mov,mp4,m4a,3gp,3g2,mj2, from 'Test-Video/Real/00003.mp4':
  Metadata:
    major_brand     : isom
    minor_version   : 512
    compatible_brands: isomiso2mp41
    encoder         : Lavf58.3.100
  Duration: 00:00:09.83, start: 0.000000, bitrate: 1708 kb/s
  Stream #0:0[0x1](und): Video: mpeg4 (Simple Profile) (mp4v / 0x7634706D), yuv420p, 888x500 [SAR 1:1 DAR 222:125], 1706 kb/s, 30 fps, 30 tbr, 90k tbn (default)
    Metadata:
      handler_name    : VideoHandler
      vendor_id       : [0][0][0][0]
Stream mapping:
  Stream #0:0 -> #0:0 (mpeg4 (native) -> mjpeg (native))
Press [q] to stop, [?] for help
[swscaler @ 0x56dcde66e780] deprecated pixel format used, make sure you did set range correctly
Output #0, image2, to '/tmp/tmpxrv_zmda/00003/%06d.jpg':
  Metadata:
    major_brand     : isom
    minor_version   : 512
    compatible_brands: isomiso2mp41
    encoder         : Lavf60.16.100
  Stream #0:0(und): Video: mjpeg, yuvj420p(pc, progressive), 888x500 [SAR 1:1 DAR 222:125], q=2-31, 200 kb/s, 30 fps, 30 tbn (default)
    Metadata:
      handler_name    : VideoHandler
      vendor_id       : [0][0][0][0]
      encoder         : Lavc60.31.102 mjpeg
    Side data:
      cpb: bitrate max/min/avg: 0/0/200000 buffer size: 0 vbv_delay: N/A
frame=    0 fps=0.0 q=5.7 size=       0kB time=00:00:00.00 bitrate=N/A speed=   0x    [out#0/image2 @ 0x56dcde60b4c0] video:4280kB audio:0kB subtitle:0kB other streams:0kB global headers:0kB muxing overhead: unknown
frame=  295 fps=0.0 q=24.8 Lsize=N/A time=00:00:09.80 bitrate=N/A speed=23.4x    
ffmpeg version 6.1.1-3ubuntu5+esm6 Copyright (c) 2000-2023 the FFmpeg developers
  built with gcc 13 (Ubuntu 13.3.0-6ubuntu2~24.04)
  configuration: --prefix=/usr --extra-version=3ubuntu5+esm6 --toolchain=hardened --libdir=/usr/lib/x86_64-linux-gnu --incdir=/usr/include/x86_64-linux-gnu --arch=amd64 --enable-gpl --disable-stripping --disable-omx --enable-gnutls --enable-libaom --enable-libass --enable-libbs2b --enable-libcaca --enable-libcdio --enable-libcodec2 --enable-libdav1d --enable-libflite --enable-libfontconfig --enable-libfreetype --enable-libfribidi --enable-libglslang --enable-libgme --enable-libgsm --enable-libharfbuzz --enable-libmp3lame --enable-libmysofa --enable-libopenjpeg --enable-libopenmpt --enable-libopus --enable-librubberband --enable-libshine --enable-libsnappy --enable-libsoxr --enable-libspeex --enable-libtheora --enable-libtwolame --enable-libvidstab --enable-libvorbis --enable-libvpx --enable-libwebp --enable-libx265 --enable-libxml2 --enable-libxvid --enable-libzimg --enable-openal --enable-opencl --enable-opengl --disable-sndio --enable-libvpl --disable-libmfx --enable-libdc1394 --enable-libdrm --enable-libiec61883 --enable-chromaprint --enable-frei0r --enable-ladspa --enable-libbluray --enable-libjack --enable-libpulse --enable-librabbitmq --enable-librist --enable-libsrt --enable-libssh --enable-libsvtav1 --enable-libx264 --enable-libzmq --enable-libzvbi --enable-lv2 --enable-sdl2 --enable-libplacebo --enable-librav1e --enable-pocketsphinx --enable-librsvg --enable-libjxl --enable-shared
  libavutil      58. 29.100 / 58. 29.100
  libavcodec     60. 31.102 / 60. 31.102
  libavformat    60. 16.100 / 60. 16.100
  libavdevice    60.  3.100 / 60.  3.100
  libavfilter     9. 12.100 /  9. 12.100
  libswscale      7.  5.100 /  7.  5.100
  libswresample   4. 12.100 /  4. 12.100
  libpostproc    57.  3.100 / 57.  3.100
Input #0, mov,mp4,m4a,3gp,3g2,mj2, from 'Test-Video/Real/00003.mp4':
  Metadata:
    major_brand     : isom
    minor_version   : 512
    compatible_brands: isomiso2mp41
    encoder         : Lavf58.3.100
  Duration: 00:00:09.83, start: 0.000000, bitrate: 1708 kb/s
  Stream #0:0[0x1](und): Video: mpeg4 (Simple Profile) (mp4v / 0x7634706D), yuv420p, 888x500 [SAR 1:1 DAR 222:125], 1706 kb/s, 30 fps, 30 tbr, 90k tbn (default)
    Metadata:
      handler_name    : VideoHandler
      vendor_id       : [0][0][0][0]
Output #0, wav, to '/tmp/tmpxrv_zmda/00003/audio.wav':
[out#0/wav @ 0x6421a14d75c0] Output file does not contain any stream
Error opening output file /tmp/tmpxrv_zmda/00003/audio.wav.
Error opening output files: Invalid argument
/home/lightdesk/Projects/AI-Detector/.venv/lib/python3.12/site-packages/torch/nn/functional.py:6278: UserWarning: Flash attention support on Navi31 GPU is still experimental. Enable it with TORCH_ROCM_AOTRITON_ENABLE_EXPERIMENTAL=1. (Triggered internally at ../aten/src/ATen/native/transformers/hip/sdp_utils.cpp:225.)
  attn_output = scaled_dot_product_attention(
/home/lightdesk/Projects/AI-Detector/.venv/lib/python3.12/site-packages/torch/nn/functional.py:6278: UserWarning: Memory Efficient attention on Navi31 GPU is still experimental. Enable it with TORCH_ROCM_AOTRITON_ENABLE_EXPERIMENTAL=1. (Triggered internally at ../aten/src/ATen/native/transformers/hip/sdp_utils.cpp:269.)
  attn_output = scaled_dot_product_attention(
ffmpeg version 6.1.1-3ubuntu5+esm6 Copyright (c) 2000-2023 the FFmpeg developers
  built with gcc 13 (Ubuntu 13.3.0-6ubuntu2~24.04)
  configuration: --prefix=/usr --extra-version=3ubuntu5+esm6 --toolchain=hardened --libdir=/usr/lib/x86_64-linux-gnu --incdir=/usr/include/x86_64-linux-gnu --arch=amd64 --enable-gpl --disable-stripping --disable-omx --enable-gnutls --enable-libaom --enable-libass --enable-libbs2b --enable-libcaca --enable-libcdio --enable-libcodec2 --enable-libdav1d --enable-libflite --enable-libfontconfig --enable-libfreetype --enable-libfribidi --enable-libglslang --enable-libgme --enable-libgsm --enable-libharfbuzz --enable-libmp3lame --enable-libmysofa --enable-libopenjpeg --enable-libopenmpt --enable-libopus --enable-librubberband --enable-libshine --enable-libsnappy --enable-libsoxr --enable-libspeex --enable-libtheora --enable-libtwolame --enable-libvidstab --enable-libvorbis --enable-libvpx --enable-libwebp --enable-libx265 --enable-libxml2 --enable-libxvid --enable-libzimg --enable-openal --enable-opencl --enable-opengl --disable-sndio --enable-libvpl --disable-libmfx --enable-libdc1394 --enable-libdrm --enable-libiec61883 --enable-chromaprint --enable-frei0r --enable-ladspa --enable-libbluray --enable-libjack --enable-libpulse --enable-librabbitmq --enable-librist --enable-libsrt --enable-libssh --enable-libsvtav1 --enable-libx264 --enable-libzmq --enable-libzvbi --enable-lv2 --enable-sdl2 --enable-libplacebo --enable-librav1e --enable-pocketsphinx --enable-librsvg --enable-libjxl --enable-shared
  libavutil      58. 29.100 / 58. 29.100
  libavcodec     60. 31.102 / 60. 31.102
  libavformat    60. 16.100 / 60. 16.100
  libavdevice    60.  3.100 / 60.  3.100
  libavfilter     9. 12.100 /  9. 12.100
  libswscale      7.  5.100 /  7.  5.100
  libswresample   4. 12.100 /  4. 12.100
  libpostproc    57.  3.100 / 57.  3.100
Input #0, mov,mp4,m4a,3gp,3g2,mj2, from 'Test-Video/Real/00009.mp4':
  Metadata:
    major_brand     : isom
    minor_version   : 512
    compatible_brands: isomiso2mp41
    encoder         : Lavf58.3.100
  Duration: 00:00:19.17, start: 0.000000, bitrate: 1557 kb/s
  Stream #0:0[0x1](und): Video: mpeg4 (Simple Profile) (mp4v / 0x7634706D), yuv420p, 892x500 [SAR 1:1 DAR 223:125], 1555 kb/s, 30 fps, 30 tbr, 90k tbn (default)
    Metadata:
      handler_name    : VideoHandler
      vendor_id       : [0][0][0][0]
Stream mapping:
  Stream #0:0 -> #0:0 (mpeg4 (native) -> mjpeg (native))
Press [q] to stop, [?] for help
[swscaler @ 0x5bc28a47dbc0] deprecated pixel format used, make sure you did set range correctly
Output #0, image2, to '/tmp/tmp9rqxaqpa/00009/%06d.jpg':
  Metadata:
    major_brand     : isom
    minor_version   : 512
    compatible_brands: isomiso2mp41
    encoder         : Lavf60.16.100
  Stream #0:0(und): Video: mjpeg, yuvj420p(pc, progressive), 892x500 [SAR 1:1 DAR 223:125], q=2-31, 200 kb/s, 30 fps, 30 tbn (default)
    Metadata:
      handler_name    : VideoHandler
      vendor_id       : [0][0][0][0]
      encoder         : Lavc60.31.102 mjpeg
    Side data:
      cpb: bitrate max/min/avg: 0/0/200000 buffer size: 0 vbv_delay: N/A
frame=    0 fps=0.0 q=5.8 size=       0kB time=00:00:00.00 bitrate=N/A speed=   0x    frame=  365 fps=0.0 q=24.8 size=N/A time=00:00:12.16 bitrate=N/A speed=23.9x    [out#0/image2 @ 0x5bc28a413880] video:8661kB audio:0kB subtitle:0kB other streams:0kB global headers:0kB muxing overhead: unknown
frame=  575 fps=0.0 q=24.8 Lsize=N/A time=00:00:19.13 bitrate=N/A speed=23.9x    
ffmpeg version 6.1.1-3ubuntu5+esm6 Copyright (c) 2000-2023 the FFmpeg developers
  built with gcc 13 (Ubuntu 13.3.0-6ubuntu2~24.04)
  configuration: --prefix=/usr --extra-version=3ubuntu5+esm6 --toolchain=hardened --libdir=/usr/lib/x86_64-linux-gnu --incdir=/usr/include/x86_64-linux-gnu --arch=amd64 --enable-gpl --disable-stripping --disable-omx --enable-gnutls --enable-libaom --enable-libass --enable-libbs2b --enable-libcaca --enable-libcdio --enable-libcodec2 --enable-libdav1d --enable-libflite --enable-libfontconfig --enable-libfreetype --enable-libfribidi --enable-libglslang --enable-libgme --enable-libgsm --enable-libharfbuzz --enable-libmp3lame --enable-libmysofa --enable-libopenjpeg --enable-libopenmpt --enable-libopus --enable-librubberband --enable-libshine --enable-libsnappy --enable-libsoxr --enable-libspeex --enable-libtheora --enable-libtwolame --enable-libvidstab --enable-libvorbis --enable-libvpx --enable-libwebp --enable-libx265 --enable-libxml2 --enable-libxvid --enable-libzimg --enable-openal --enable-opencl --enable-opengl --disable-sndio --enable-libvpl --disable-libmfx --enable-libdc1394 --enable-libdrm --enable-libiec61883 --enable-chromaprint --enable-frei0r --enable-ladspa --enable-libbluray --enable-libjack --enable-libpulse --enable-librabbitmq --enable-librist --enable-libsrt --enable-libssh --enable-libsvtav1 --enable-libx264 --enable-libzmq --enable-libzvbi --enable-lv2 --enable-sdl2 --enable-libplacebo --enable-librav1e --enable-pocketsphinx --enable-librsvg --enable-libjxl --enable-shared
  libavutil      58. 29.100 / 58. 29.100
  libavcodec     60. 31.102 / 60. 31.102
  libavformat    60. 16.100 / 60. 16.100
  libavdevice    60.  3.100 / 60.  3.100
  libavfilter     9. 12.100 /  9. 12.100
  libswscale      7.  5.100 /  7.  5.100
  libswresample   4. 12.100 /  4. 12.100
  libpostproc    57.  3.100 / 57.  3.100
Input #0, mov,mp4,m4a,3gp,3g2,mj2, from 'Test-Video/Real/00009.mp4':
  Metadata:
    major_brand     : isom
    minor_version   : 512
    compatible_brands: isomiso2mp41
    encoder         : Lavf58.3.100
  Duration: 00:00:19.17, start: 0.000000, bitrate: 1557 kb/s
  Stream #0:0[0x1](und): Video: mpeg4 (Simple Profile) (mp4v / 0x7634706D), yuv420p, 892x500 [SAR 1:1 DAR 223:125], 1555 kb/s, 30 fps, 30 tbr, 90k tbn (default)
    Metadata:
      handler_name    : VideoHandler
      vendor_id       : [0][0][0][0]
Output #0, wav, to '/tmp/tmp9rqxaqpa/00009/audio.wav':
[out#0/wav @ 0x577c8af7b900] Output file does not contain any stream
Error opening output file /tmp/tmp9rqxaqpa/00009/audio.wav.
Error opening output files: Invalid argument
ffmpeg version 6.1.1-3ubuntu5+esm6 Copyright (c) 2000-2023 the FFmpeg developers
  built with gcc 13 (Ubuntu 13.3.0-6ubuntu2~24.04)
  configuration: --prefix=/usr --extra-version=3ubuntu5+esm6 --toolchain=hardened --libdir=/usr/lib/x86_64-linux-gnu --incdir=/usr/include/x86_64-linux-gnu --arch=amd64 --enable-gpl --disable-stripping --disable-omx --enable-gnutls --enable-libaom --enable-libass --enable-libbs2b --enable-libcaca --enable-libcdio --enable-libcodec2 --enable-libdav1d --enable-libflite --enable-libfontconfig --enable-libfreetype --enable-libfribidi --enable-libglslang --enable-libgme --enable-libgsm --enable-libharfbuzz --enable-libmp3lame --enable-libmysofa --enable-libopenjpeg --enable-libopenmpt --enable-libopus --enable-librubberband --enable-libshine --enable-libsnappy --enable-libsoxr --enable-libspeex --enable-libtheora --enable-libtwolame --enable-libvidstab --enable-libvorbis --enable-libvpx --enable-libwebp --enable-libx265 --enable-libxml2 --enable-libxvid --enable-libzimg --enable-openal --enable-opencl --enable-opengl --disable-sndio --enable-libvpl --disable-libmfx --enable-libdc1394 --enable-libdrm --enable-libiec61883 --enable-chromaprint --enable-frei0r --enable-ladspa --enable-libbluray --enable-libjack --enable-libpulse --enable-librabbitmq --enable-librist --enable-libsrt --enable-libssh --enable-libsvtav1 --enable-libx264 --enable-libzmq --enable-libzvbi --enable-lv2 --enable-sdl2 --enable-libplacebo --enable-librav1e --enable-pocketsphinx --enable-librsvg --enable-libjxl --enable-shared
  libavutil      58. 29.100 / 58. 29.100
  libavcodec     60. 31.102 / 60. 31.102
  libavformat    60. 16.100 / 60. 16.100
  libavdevice    60.  3.100 / 60.  3.100
  libavfilter     9. 12.100 /  9. 12.100
  libswscale      7.  5.100 /  7.  5.100
  libswresample   4. 12.100 /  4. 12.100
  libpostproc    57.  3.100 / 57.  3.100
Input #0, mov,mp4,m4a,3gp,3g2,mj2, from 'Test-Video/YouTube-real/00276.mp4':
  Metadata:
    major_brand     : isom
    minor_version   : 512
    compatible_brands: isomiso2mp41
    encoder         : Lavf58.3.100
  Duration: 00:00:15.37, start: 0.000000, bitrate: 777 kb/s
  Stream #0:0[0x1](und): Video: mpeg4 (Simple Profile) (mp4v / 0x7634706D), yuv420p, 856x478 [SAR 1:1 DAR 428:239], 775 kb/s, 30 fps, 30 tbr, 90k tbn (default)
    Metadata:
      handler_name    : VideoHandler
      vendor_id       : [0][0][0][0]
Stream mapping:
  Stream #0:0 -> #0:0 (mpeg4 (native) -> mjpeg (native))
Press [q] to stop, [?] for help
[swscaler @ 0x60c22d6adf00] deprecated pixel format used, make sure you did set range correctly
Output #0, image2, to '/tmp/tmpox6ku9ax/00276/%06d.jpg':
  Metadata:
    major_brand     : isom
    minor_version   : 512
    compatible_brands: isomiso2mp41
    encoder         : Lavf60.16.100
  Stream #0:0(und): Video: mjpeg, yuvj420p(pc, progressive), 856x478 [SAR 1:1 DAR 428:239], q=2-31, 200 kb/s, 30 fps, 30 tbn (default)
    Metadata:
      handler_name    : VideoHandler
      vendor_id       : [0][0][0][0]
      encoder         : Lavc60.31.102 mjpeg
    Side data:
      cpb: bitrate max/min/avg: 0/0/200000 buffer size: 0 vbv_delay: N/A
frame=    0 fps=0.0 q=5.3 size=       0kB time=00:00:00.00 bitrate=N/A speed=   0x    frame=  440 fps=0.0 q=24.8 size=N/A time=00:00:14.66 bitrate=N/A speed=28.9x    [out#0/image2 @ 0x60c22d648700] video:4186kB audio:0kB subtitle:0kB other streams:0kB global headers:0kB muxing overhead: unknown
frame=  461 fps=0.0 q=24.8 Lsize=N/A time=00:00:15.33 bitrate=N/A speed=28.7x    
ffmpeg version 6.1.1-3ubuntu5+esm6 Copyright (c) 2000-2023 the FFmpeg developers
  built with gcc 13 (Ubuntu 13.3.0-6ubuntu2~24.04)
  configuration: --prefix=/usr --extra-version=3ubuntu5+esm6 --toolchain=hardened --libdir=/usr/lib/x86_64-linux-gnu --incdir=/usr/include/x86_64-linux-gnu --arch=amd64 --enable-gpl --disable-stripping --disable-omx --enable-gnutls --enable-libaom --enable-libass --enable-libbs2b --enable-libcaca --enable-libcdio --enable-libcodec2 --enable-libdav1d --enable-libflite --enable-libfontconfig --enable-libfreetype --enable-libfribidi --enable-libglslang --enable-libgme --enable-libgsm --enable-libharfbuzz --enable-libmp3lame --enable-libmysofa --enable-libopenjpeg --enable-libopenmpt --enable-libopus --enable-librubberband --enable-libshine --enable-libsnappy --enable-libsoxr --enable-libspeex --enable-libtheora --enable-libtwolame --enable-libvidstab --enable-libvorbis --enable-libvpx --enable-libwebp --enable-libx265 --enable-libxml2 --enable-libxvid --enable-libzimg --enable-openal --enable-opencl --enable-opengl --disable-sndio --enable-libvpl --disable-libmfx --enable-libdc1394 --enable-libdrm --enable-libiec61883 --enable-chromaprint --enable-frei0r --enable-ladspa --enable-libbluray --enable-libjack --enable-libpulse --enable-librabbitmq --enable-librist --enable-libsrt --enable-libssh --enable-libsvtav1 --enable-libx264 --enable-libzmq --enable-libzvbi --enable-lv2 --enable-sdl2 --enable-libplacebo --enable-librav1e --enable-pocketsphinx --enable-librsvg --enable-libjxl --enable-shared
  libavutil      58. 29.100 / 58. 29.100
  libavcodec     60. 31.102 / 60. 31.102
  libavformat    60. 16.100 / 60. 16.100
  libavdevice    60.  3.100 / 60.  3.100
  libavfilter     9. 12.100 /  9. 12.100
  libswscale      7.  5.100 /  7.  5.100
  libswresample   4. 12.100 /  4. 12.100
  libpostproc    57.  3.100 / 57.  3.100
Input #0, mov,mp4,m4a,3gp,3g2,mj2, from 'Test-Video/YouTube-real/00276.mp4':
  Metadata:
    major_brand     : isom
    minor_version   : 512
    compatible_brands: isomiso2mp41
    encoder         : Lavf58.3.100
  Duration: 00:00:15.37, start: 0.000000, bitrate: 777 kb/s
  Stream #0:0[0x1](und): Video: mpeg4 (Simple Profile) (mp4v / 0x7634706D), yuv420p, 856x478 [SAR 1:1 DAR 428:239], 775 kb/s, 30 fps, 30 tbr, 90k tbn (default)
    Metadata:
      handler_name    : VideoHandler
      vendor_id       : [0][0][0][0]
Output #0, wav, to '/tmp/tmpox6ku9ax/00276/audio.wav':
[out#0/wav @ 0x63e0cdb2c800] Output file does not contain any stream
Error opening output file /tmp/tmpox6ku9ax/00276/audio.wav.
Error opening output files: Invalid argument
ffmpeg version 6.1.1-3ubuntu5+esm6 Copyright (c) 2000-2023 the FFmpeg developers
  built with gcc 13 (Ubuntu 13.3.0-6ubuntu2~24.04)
  configuration: --prefix=/usr --extra-version=3ubuntu5+esm6 --toolchain=hardened --libdir=/usr/lib/x86_64-linux-gnu --incdir=/usr/include/x86_64-linux-gnu --arch=amd64 --enable-gpl --disable-stripping --disable-omx --enable-gnutls --enable-libaom --enable-libass --enable-libbs2b --enable-libcaca --enable-libcdio --enable-libcodec2 --enable-libdav1d --enable-libflite --enable-libfontconfig --enable-libfreetype --enable-libfribidi --enable-libglslang --enable-libgme --enable-libgsm --enable-libharfbuzz --enable-libmp3lame --enable-libmysofa --enable-libopenjpeg --enable-libopenmpt --enable-libopus --enable-librubberband --enable-libshine --enable-libsnappy --enable-libsoxr --enable-libspeex --enable-libtheora --enable-libtwolame --enable-libvidstab --enable-libvorbis --enable-libvpx --enable-libwebp --enable-libx265 --enable-libxml2 --enable-libxvid --enable-libzimg --enable-openal --enable-opencl --enable-opengl --disable-sndio --enable-libvpl --disable-libmfx --enable-libdc1394 --enable-libdrm --enable-libiec61883 --enable-chromaprint --enable-frei0r --enable-ladspa --enable-libbluray --enable-libjack --enable-libpulse --enable-librabbitmq --enable-librist --enable-libsrt --enable-libssh --enable-libsvtav1 --enable-libx264 --enable-libzmq --enable-libzvbi --enable-lv2 --enable-sdl2 --enable-libplacebo --enable-librav1e --enable-pocketsphinx --enable-librsvg --enable-libjxl --enable-shared
  libavutil      58. 29.100 / 58. 29.100
  libavcodec     60. 31.102 / 60. 31.102
  libavformat    60. 16.100 / 60. 16.100
  libavdevice    60.  3.100 / 60.  3.100
  libavfilter     9. 12.100 /  9. 12.100
  libswscale      7.  5.100 /  7.  5.100
  libswresample   4. 12.100 /  4. 12.100
  libpostproc    57.  3.100 / 57.  3.100
Input #0, mov,mp4,m4a,3gp,3g2,mj2, from 'Test-Video/YouTube-real/00030.mp4':
  Metadata:
    major_brand     : isom
    minor_version   : 512
    compatible_brands: isomiso2mp41
    encoder         : Lavf58.3.100
  Duration: 00:00:15.73, start: 0.000000, bitrate: 764 kb/s
  Stream #0:0[0x1](und): Video: mpeg4 (Simple Profile) (mp4v / 0x7634706D), yuv420p, 888x500 [SAR 1:1 DAR 222:125], 762 kb/s, 30 fps, 30 tbr, 90k tbn (default)
    Metadata:
      handler_name    : VideoHandler
      vendor_id       : [0][0][0][0]
Stream mapping:
  Stream #0:0 -> #0:0 (mpeg4 (native) -> mjpeg (native))
Press [q] to stop, [?] for help
[swscaler @ 0x65086d9d0340] deprecated pixel format used, make sure you did set range correctly
Output #0, image2, to '/tmp/tmpkdgxyq4n/00030/%06d.jpg':
  Metadata:
    major_brand     : isom
    minor_version   : 512
    compatible_brands: isomiso2mp41
    encoder         : Lavf60.16.100
  Stream #0:0(und): Video: mjpeg, yuvj420p(pc, progressive), 888x500 [SAR 1:1 DAR 222:125], q=2-31, 200 kb/s, 30 fps, 30 tbn (default)
    Metadata:
      handler_name    : VideoHandler
      vendor_id       : [0][0][0][0]
      encoder         : Lavc60.31.102 mjpeg
    Side data:
      cpb: bitrate max/min/avg: 0/0/200000 buffer size: 0 vbv_delay: N/A
frame=    0 fps=0.0 q=4.7 size=       0kB time=00:00:00.00 bitrate=N/A speed=   0x    frame=  397 fps=0.0 q=24.8 size=N/A time=00:00:13.23 bitrate=N/A speed=  26x    [out#0/image2 @ 0x65086d96b6c0] video:4152kB audio:0kB subtitle:0kB other streams:0kB global headers:0kB muxing overhead: unknown
frame=  472 fps=0.0 q=24.8 Lsize=N/A time=00:00:15.70 bitrate=N/A speed=26.1x    
ffmpeg version 6.1.1-3ubuntu5+esm6 Copyright (c) 2000-2023 the FFmpeg developers
  built with gcc 13 (Ubuntu 13.3.0-6ubuntu2~24.04)
  configuration: --prefix=/usr --extra-version=3ubuntu5+esm6 --toolchain=hardened --libdir=/usr/lib/x86_64-linux-gnu --incdir=/usr/include/x86_64-linux-gnu --arch=amd64 --enable-gpl --disable-stripping --disable-omx --enable-gnutls --enable-libaom --enable-libass --enable-libbs2b --enable-libcaca --enable-libcdio --enable-libcodec2 --enable-libdav1d --enable-libflite --enable-libfontconfig --enable-libfreetype --enable-libfribidi --enable-libglslang --enable-libgme --enable-libgsm --enable-libharfbuzz --enable-libmp3lame --enable-libmysofa --enable-libopenjpeg --enable-libopenmpt --enable-libopus --enable-librubberband --enable-libshine --enable-libsnappy --enable-libsoxr --enable-libspeex --enable-libtheora --enable-libtwolame --enable-libvidstab --enable-libvorbis --enable-libvpx --enable-libwebp --enable-libx265 --enable-libxml2 --enable-libxvid --enable-libzimg --enable-openal --enable-opencl --enable-opengl --disable-sndio --enable-libvpl --disable-libmfx --enable-libdc1394 --enable-libdrm --enable-libiec61883 --enable-chromaprint --enable-frei0r --enable-ladspa --enable-libbluray --enable-libjack --enable-libpulse --enable-librabbitmq --enable-librist --enable-libsrt --enable-libssh --enable-libsvtav1 --enable-libx264 --enable-libzmq --enable-libzvbi --enable-lv2 --enable-sdl2 --enable-libplacebo --enable-librav1e --enable-pocketsphinx --enable-librsvg --enable-libjxl --enable-shared
  libavutil      58. 29.100 / 58. 29.100
  libavcodec     60. 31.102 / 60. 31.102
  libavformat    60. 16.100 / 60. 16.100
  libavdevice    60.  3.100 / 60.  3.100
  libavfilter     9. 12.100 /  9. 12.100
  libswscale      7.  5.100 /  7.  5.100
  libswresample   4. 12.100 /  4. 12.100
  libpostproc    57.  3.100 / 57.  3.100
Input #0, mov,mp4,m4a,3gp,3g2,mj2, from 'Test-Video/YouTube-real/00030.mp4':
  Metadata:
    major_brand     : isom
    minor_version   : 512
    compatible_brands: isomiso2mp41
    encoder         : Lavf58.3.100
  Duration: 00:00:15.73, start: 0.000000, bitrate: 764 kb/s
  Stream #0:0[0x1](und): Video: mpeg4 (Simple Profile) (mp4v / 0x7634706D), yuv420p, 888x500 [SAR 1:1 DAR 222:125], 762 kb/s, 30 fps, 30 tbr, 90k tbn (default)
    Metadata:
      handler_name    : VideoHandler
      vendor_id       : [0][0][0][0]
Output #0, wav, to '/tmp/tmpkdgxyq4n/00030/audio.wav':
[out#0/wav @ 0x642d7537f800] Output file does not contain any stream
Error opening output file /tmp/tmpkdgxyq4n/00030/audio.wav.
Error opening output files: Invalid argument
ffmpeg version 6.1.1-3ubuntu5+esm6 Copyright (c) 2000-2023 the FFmpeg developers
  built with gcc 13 (Ubuntu 13.3.0-6ubuntu2~24.04)
  configuration: --prefix=/usr --extra-version=3ubuntu5+esm6 --toolchain=hardened --libdir=/usr/lib/x86_64-linux-gnu --incdir=/usr/include/x86_64-linux-gnu --arch=amd64 --enable-gpl --disable-stripping --disable-omx --enable-gnutls --enable-libaom --enable-libass --enable-libbs2b --enable-libcaca --enable-libcdio --enable-libcodec2 --enable-libdav1d --enable-libflite --enable-libfontconfig --enable-libfreetype --enable-libfribidi --enable-libglslang --enable-libgme --enable-libgsm --enable-libharfbuzz --enable-libmp3lame --enable-libmysofa --enable-libopenjpeg --enable-libopenmpt --enable-libopus --enable-librubberband --enable-libshine --enable-libsnappy --enable-libsoxr --enable-libspeex --enable-libtheora --enable-libtwolame --enable-libvidstab --enable-libvorbis --enable-libvpx --enable-libwebp --enable-libx265 --enable-libxml2 --enable-libxvid --enable-libzimg --enable-openal --enable-opencl --enable-opengl --disable-sndio --enable-libvpl --disable-libmfx --enable-libdc1394 --enable-libdrm --enable-libiec61883 --enable-chromaprint --enable-frei0r --enable-ladspa --enable-libbluray --enable-libjack --enable-libpulse --enable-librabbitmq --enable-librist --enable-libsrt --enable-libssh --enable-libsvtav1 --enable-libx264 --enable-libzmq --enable-libzvbi --enable-lv2 --enable-sdl2 --enable-libplacebo --enable-librav1e --enable-pocketsphinx --enable-librsvg --enable-libjxl --enable-shared
  libavutil      58. 29.100 / 58. 29.100
  libavcodec     60. 31.102 / 60. 31.102
  libavformat    60. 16.100 / 60. 16.100
  libavdevice    60.  3.100 / 60.  3.100
  libavfilter     9. 12.100 /  9. 12.100
  libswscale      7.  5.100 /  7.  5.100
  libswresample   4. 12.100 /  4. 12.100
  libpostproc    57.  3.100 / 57.  3.100
Input #0, mov,mp4,m4a,3gp,3g2,mj2, from 'Test-Video/YouTube-real/00204.mp4':
  Metadata:
    major_brand     : isom
    minor_version   : 512
    compatible_brands: isomiso2mp41
    encoder         : Lavf58.3.100
  Duration: 00:00:15.43, start: 0.000000, bitrate: 1270 kb/s
  Stream #0:0[0x1](und): Video: mpeg4 (Simple Profile) (mp4v / 0x7634706D), yuv420p, 892x500 [SAR 1:1 DAR 223:125], 1268 kb/s, 30 fps, 30 tbr, 90k tbn (default)
    Metadata:
      handler_name    : VideoHandler
      vendor_id       : [0][0][0][0]
Stream mapping:
  Stream #0:0 -> #0:0 (mpeg4 (native) -> mjpeg (native))
Press [q] to stop, [?] for help
[swscaler @ 0x5ca14df42240] deprecated pixel format used, make sure you did set range correctly
Output #0, image2, to '/tmp/tmp1g4rlg_n/00204/%06d.jpg':
  Metadata:
    major_brand     : isom
    minor_version   : 512
    compatible_brands: isomiso2mp41
    encoder         : Lavf60.16.100
  Stream #0:0(und): Video: mjpeg, yuvj420p(pc, progressive), 892x500 [SAR 1:1 DAR 223:125], q=2-31, 200 kb/s, 30 fps, 30 tbn (default)
    Metadata:
      handler_name    : VideoHandler
      vendor_id       : [0][0][0][0]
      encoder         : Lavc60.31.102 mjpeg
    Side data:
      cpb: bitrate max/min/avg: 0/0/200000 buffer size: 0 vbv_delay: N/A
frame=    0 fps=0.0 q=7.3 size=       0kB time=00:00:00.00 bitrate=N/A speed=   0x    frame=  360 fps=0.0 q=24.8 size=N/A time=00:00:12.00 bitrate=N/A speed=23.6x    [out#0/image2 @ 0x5ca14dedb700] video:7354kB audio:0kB subtitle:0kB other streams:0kB global headers:0kB muxing overhead: unknown
frame=  463 fps=0.0 q=24.8 Lsize=N/A time=00:00:15.40 bitrate=N/A speed=23.8x    
ffmpeg version 6.1.1-3ubuntu5+esm6 Copyright (c) 2000-2023 the FFmpeg developers
  built with gcc 13 (Ubuntu 13.3.0-6ubuntu2~24.04)
  configuration: --prefix=/usr --extra-version=3ubuntu5+esm6 --toolchain=hardened --libdir=/usr/lib/x86_64-linux-gnu --incdir=/usr/include/x86_64-linux-gnu --arch=amd64 --enable-gpl --disable-stripping --disable-omx --enable-gnutls --enable-libaom --enable-libass --enable-libbs2b --enable-libcaca --enable-libcdio --enable-libcodec2 --enable-libdav1d --enable-libflite --enable-libfontconfig --enable-libfreetype --enable-libfribidi --enable-libglslang --enable-libgme --enable-libgsm --enable-libharfbuzz --enable-libmp3lame --enable-libmysofa --enable-libopenjpeg --enable-libopenmpt --enable-libopus --enable-librubberband --enable-libshine --enable-libsnappy --enable-libsoxr --enable-libspeex --enable-libtheora --enable-libtwolame --enable-libvidstab --enable-libvorbis --enable-libvpx --enable-libwebp --enable-libx265 --enable-libxml2 --enable-libxvid --enable-libzimg --enable-openal --enable-opencl --enable-opengl --disable-sndio --enable-libvpl --disable-libmfx --enable-libdc1394 --enable-libdrm --enable-libiec61883 --enable-chromaprint --enable-frei0r --enable-ladspa --enable-libbluray --enable-libjack --enable-libpulse --enable-librabbitmq --enable-librist --enable-libsrt --enable-libssh --enable-libsvtav1 --enable-libx264 --enable-libzmq --enable-libzvbi --enable-lv2 --enable-sdl2 --enable-libplacebo --enable-librav1e --enable-pocketsphinx --enable-librsvg --enable-libjxl --enable-shared
  libavutil      58. 29.100 / 58. 29.100
  libavcodec     60. 31.102 / 60. 31.102
  libavformat    60. 16.100 / 60. 16.100
  libavdevice    60.  3.100 / 60.  3.100
  libavfilter     9. 12.100 /  9. 12.100
  libswscale      7.  5.100 /  7.  5.100
  libswresample   4. 12.100 /  4. 12.100
  libpostproc    57.  3.100 / 57.  3.100
Input #0, mov,mp4,m4a,3gp,3g2,mj2, from 'Test-Video/YouTube-real/00204.mp4':
  Metadata:
    major_brand     : isom
    minor_version   : 512
    compatible_brands: isomiso2mp41
    encoder         : Lavf58.3.100
  Duration: 00:00:15.43, start: 0.000000, bitrate: 1270 kb/s
  Stream #0:0[0x1](und): Video: mpeg4 (Simple Profile) (mp4v / 0x7634706D), yuv420p, 892x500 [SAR 1:1 DAR 223:125], 1268 kb/s, 30 fps, 30 tbr, 90k tbn (default)
    Metadata:
      handler_name    : VideoHandler
      vendor_id       : [0][0][0][0]
Output #0, wav, to '/tmp/tmp1g4rlg_n/00204/audio.wav':
[out#0/wav @ 0x5ea62c74e800] Output file does not contain any stream
Error opening output file /tmp/tmp1g4rlg_n/00204/audio.wav.
Error opening output files: Invalid argument

================================================================================
INITIALIZING TEST SUITE
================================================================================
================================================================================
Initializing 4-Layer Deepfake Detection Pipeline
================================================================================
Loading Layer 1: Wav2Vec2 Audio Detector...
⚠ NOTE: Wav2Vec2 is not trained for deepfake detection.
   Using it as a baseline feature extractor only.
Loading Layer 2: SBI Visual Artifact Detector...
Loaded pretrained weights for efficientnet-b4
Loading Layer 3: SyncNet Lip-Sync Detector...
Loading Layer 4: UniversalFakeDetect CLIP Detector...
================================================================================
✓ All layers loaded successfully
================================================================================

================================================================================
Testing 2 videos from Test-Video/Real
Expected: REAL
================================================================================

================================================================================
Testing: 00003.mp4
Ground Truth: REAL
================================================================================

================================================================================
Analyzing: 00003.mp4
================================================================================

► Running Layer 1: Audio Analysis...
  Result: REAL (confidence: 0.00%, time: 0.03s)
  ⚠ Error: Video has no audio stream

► Running Layer 2: Visual Artifacts...
  Result: FAKE (confidence: 99.33%, time: 2.04s)

► Running Layer 3: Lip-Sync Analysis...
  Result: REAL (confidence: 0.00%, time: 2.93s)
  ⚠ Error: [Errno 2] No such file or directory: '/tmp/tmpxrv_zmda/00003/audio.wav'

► Running Layer 4: Semantic Analysis...
  Result: REAL (confidence: 57.24%, time: 0.20s)

================================================================================
FINAL VERDICT: REAL
Confidence: 57.24%
Stopped at: Layer 4: Semantic Analysis
Total time: 5.29s
================================================================================


✓ CORRECT
Prediction: REAL (Confidence: 57.24%)
Time: 5.29s

================================================================================
Testing: 00009.mp4
Ground Truth: REAL
================================================================================

================================================================================
Analyzing: 00009.mp4
================================================================================

► Running Layer 1: Audio Analysis...
  Result: REAL (confidence: 0.00%, time: 0.03s)
  ⚠ Error: Video has no audio stream

► Running Layer 2: Visual Artifacts...
  Result: FAKE (confidence: 99.72%, time: 1.78s)

► Running Layer 3: Lip-Sync Analysis...
  Result: REAL (confidence: 0.00%, time: 5.89s)
  ⚠ Error: [Errno 2] No such file or directory: '/tmp/tmp9rqxaqpa/00009/audio.wav'

► Running Layer 4: Semantic Analysis...
  Result: FAKE (confidence: 59.38%, time: 0.18s)

================================================================================
FINAL VERDICT: FAKE
Confidence: 99.72%
Stopped at: Layer 4: Semantic Analysis
Total time: 8.05s
================================================================================


✗ WRONG
Prediction: FAKE (Confidence: 99.72%)
Time: 8.05s

================================================================================
Testing 3 videos from Test-Video/YouTube-real
Expected: REAL
================================================================================

================================================================================
Testing: 00276.mp4
Ground Truth: REAL
================================================================================

================================================================================
Analyzing: 00276.mp4
================================================================================

► Running Layer 1: Audio Analysis...
  Result: REAL (confidence: 0.00%, time: 0.03s)
  ⚠ Error: Video has no audio stream

► Running Layer 2: Visual Artifacts...
  Result: REAL (confidence: 86.99%, time: 1.75s)

► Running Layer 3: Lip-Sync Analysis...
  Result: REAL (confidence: 0.00%, time: 4.11s)
  ⚠ Error: [Errno 2] No such file or directory: '/tmp/tmpox6ku9ax/00276/audio.wav'

► Running Layer 4: Semantic Analysis...
  Result: FAKE (confidence: 67.14%, time: 0.18s)

================================================================================
FINAL VERDICT: FAKE
Confidence: 67.14%
Stopped at: Layer 4: Semantic Analysis
Total time: 6.18s
================================================================================


✗ WRONG
Prediction: FAKE (Confidence: 67.14%)
Time: 6.18s

================================================================================
Testing: 00030.mp4
Ground Truth: REAL
================================================================================

================================================================================
Analyzing: 00030.mp4
================================================================================

► Running Layer 1: Audio Analysis...
  Result: REAL (confidence: 0.00%, time: 0.04s)
  ⚠ Error: Video has no audio stream

► Running Layer 2: Visual Artifacts...
  Result: FAKE (confidence: 76.93%, time: 1.76s)

► Running Layer 3: Lip-Sync Analysis...
  Result: REAL (confidence: 0.00%, time: 4.68s)
  ⚠ Error: [Errno 2] No such file or directory: '/tmp/tmpkdgxyq4n/00030/audio.wav'

► Running Layer 4: Semantic Analysis...
  Result: FAKE (confidence: 69.57%, time: 0.18s)

================================================================================
FINAL VERDICT: FAKE
Confidence: 76.93%
Stopped at: Layer 4: Semantic Analysis
Total time: 6.79s
================================================================================


✗ WRONG
Prediction: FAKE (Confidence: 76.93%)
Time: 6.79s

================================================================================
Testing: 00204.mp4
Ground Truth: REAL
================================================================================

================================================================================
Analyzing: 00204.mp4
================================================================================

► Running Layer 1: Audio Analysis...
  Result: REAL (confidence: 0.00%, time: 0.03s)
  ⚠ Error: Video has no audio stream

► Running Layer 2: Visual Artifacts...
  Result: FAKE (confidence: 88.49%, time: 1.75s)

► Running Layer 3: Lip-Sync Analysis...
  Result: REAL (confidence: 0.00%, time: 4.66s)
  ⚠ Error: [Errno 2] No such file or directory: '/tmp/tmp1g4rlg_n/00204/audio.wav'

► Running Layer 4: Semantic Analysis...
  Result: FAKE (confidence: 55.74%, time: 0.18s)

================================================================================
FINAL VERDICT: FAKE
Confidence: 88.49%
Stopped at: Layer 4: Semantic Analysis
Total time: 6.76s
================================================================================


✗ WRONG
Prediction: FAKE (Confidence: 88.49%)
Time: 6.76s

================================================================================
Testing 3 videos from Test-Video/Celeb-real
Expected: REAL
================================================================================

================================================================================
Testing: id8_0006.mp4
Ground Truth: REAL
================================================================================

================================================================================
Analyzing: id8_0006.mp4
================================================================================

► Running Layer 1: Audio Analysis...
  Result: REAL (confidence: 0.00%, time: 0.03s)
  ⚠ Error: Video has no audio stream

► Running Layer 2: Visual Artifacts...
  Result: FAKE (confidence: 92.01%, time: 1.77s)
ffmpeg version 6.1.1-3ubuntu5+esm6 Copyright (c) 2000-2023 the FFmpeg developers
  built with gcc 13 (Ubuntu 13.3.0-6ubuntu2~24.04)
  configuration: --prefix=/usr --extra-version=3ubuntu5+esm6 --toolchain=hardened --libdir=/usr/lib/x86_64-linux-gnu --incdir=/usr/include/x86_64-linux-gnu --arch=amd64 --enable-gpl --disable-stripping --disable-omx --enable-gnutls --enable-libaom --enable-libass --enable-libbs2b --enable-libcaca --enable-libcdio --enable-libcodec2 --enable-libdav1d --enable-libflite --enable-libfontconfig --enable-libfreetype --enable-libfribidi --enable-libglslang --enable-libgme --enable-libgsm --enable-libharfbuzz --enable-libmp3lame --enable-libmysofa --enable-libopenjpeg --enable-libopenmpt --enable-libopus --enable-librubberband --enable-libshine --enable-libsnappy --enable-libsoxr --enable-libspeex --enable-libtheora --enable-libtwolame --enable-libvidstab --enable-libvorbis --enable-libvpx --enable-libwebp --enable-libx265 --enable-libxml2 --enable-libxvid --enable-libzimg --enable-openal --enable-opencl --enable-opengl --disable-sndio --enable-libvpl --disable-libmfx --enable-libdc1394 --enable-libdrm --enable-libiec61883 --enable-chromaprint --enable-frei0r --enable-ladspa --enable-libbluray --enable-libjack --enable-libpulse --enable-librabbitmq --enable-librist --enable-libsrt --enable-libssh --enable-libsvtav1 --enable-libx264 --enable-libzmq --enable-libzvbi --enable-lv2 --enable-sdl2 --enable-libplacebo --enable-librav1e --enable-pocketsphinx --enable-librsvg --enable-libjxl --enable-shared
  libavutil      58. 29.100 / 58. 29.100
  libavcodec     60. 31.102 / 60. 31.102
  libavformat    60. 16.100 / 60. 16.100
  libavdevice    60.  3.100 / 60.  3.100
  libavfilter     9. 12.100 /  9. 12.100
  libswscale      7.  5.100 /  7.  5.100
  libswresample   4. 12.100 /  4. 12.100
  libpostproc    57.  3.100 / 57.  3.100
Input #0, mov,mp4,m4a,3gp,3g2,mj2, from 'Test-Video/Celeb-real/id8_0006.mp4':
  Metadata:
    major_brand     : isom
    minor_version   : 512
    compatible_brands: isomiso2mp41
    encoder         : Lavf58.3.100
  Duration: 00:00:17.13, start: 0.000000, bitrate: 1455 kb/s
  Stream #0:0[0x1](und): Video: mpeg4 (Simple Profile) (mp4v / 0x7634706D), yuv420p, 942x500 [SAR 1:1 DAR 471:250], 1453 kb/s, 30 fps, 30 tbr, 90k tbn (default)
    Metadata:
      handler_name    : VideoHandler
      vendor_id       : [0][0][0][0]
Stream mapping:
  Stream #0:0 -> #0:0 (mpeg4 (native) -> mjpeg (native))
Press [q] to stop, [?] for help
[swscaler @ 0x604b399811c0] deprecated pixel format used, make sure you did set range correctly
Output #0, image2, to '/tmp/tmpy7mh0ts5/id8_0006/%06d.jpg':
  Metadata:
    major_brand     : isom
    minor_version   : 512
    compatible_brands: isomiso2mp41
    encoder         : Lavf60.16.100
  Stream #0:0(und): Video: mjpeg, yuvj420p(pc, progressive), 942x500 [SAR 1:1 DAR 471:250], q=2-31, 200 kb/s, 30 fps, 30 tbn (default)
    Metadata:
      handler_name    : VideoHandler
      vendor_id       : [0][0][0][0]
      encoder         : Lavc60.31.102 mjpeg
    Side data:
      cpb: bitrate max/min/avg: 0/0/200000 buffer size: 0 vbv_delay: N/A
frame=    0 fps=0.0 q=5.8 size=       0kB time=00:00:00.00 bitrate=N/A speed=   0x    frame=  347 fps=0.0 q=24.8 size=N/A time=00:00:11.56 bitrate=N/A speed=22.7x    [out#0/image2 @ 0x604b3991a600] video:7661kB audio:0kB subtitle:0kB other streams:0kB global headers:0kB muxing overhead: unknown
frame=  514 fps=0.0 q=24.8 Lsize=N/A time=00:00:17.10 bitrate=N/A speed=22.8x    
ffmpeg version 6.1.1-3ubuntu5+esm6 Copyright (c) 2000-2023 the FFmpeg developers
  built with gcc 13 (Ubuntu 13.3.0-6ubuntu2~24.04)
  configuration: --prefix=/usr --extra-version=3ubuntu5+esm6 --toolchain=hardened --libdir=/usr/lib/x86_64-linux-gnu --incdir=/usr/include/x86_64-linux-gnu --arch=amd64 --enable-gpl --disable-stripping --disable-omx --enable-gnutls --enable-libaom --enable-libass --enable-libbs2b --enable-libcaca --enable-libcdio --enable-libcodec2 --enable-libdav1d --enable-libflite --enable-libfontconfig --enable-libfreetype --enable-libfribidi --enable-libglslang --enable-libgme --enable-libgsm --enable-libharfbuzz --enable-libmp3lame --enable-libmysofa --enable-libopenjpeg --enable-libopenmpt --enable-libopus --enable-librubberband --enable-libshine --enable-libsnappy --enable-libsoxr --enable-libspeex --enable-libtheora --enable-libtwolame --enable-libvidstab --enable-libvorbis --enable-libvpx --enable-libwebp --enable-libx265 --enable-libxml2 --enable-libxvid --enable-libzimg --enable-openal --enable-opencl --enable-opengl --disable-sndio --enable-libvpl --disable-libmfx --enable-libdc1394 --enable-libdrm --enable-libiec61883 --enable-chromaprint --enable-frei0r --enable-ladspa --enable-libbluray --enable-libjack --enable-libpulse --enable-librabbitmq --enable-librist --enable-libsrt --enable-libssh --enable-libsvtav1 --enable-libx264 --enable-libzmq --enable-libzvbi --enable-lv2 --enable-sdl2 --enable-libplacebo --enable-librav1e --enable-pocketsphinx --enable-librsvg --enable-libjxl --enable-shared
  libavutil      58. 29.100 / 58. 29.100
  libavcodec     60. 31.102 / 60. 31.102
  libavformat    60. 16.100 / 60. 16.100
  libavdevice    60.  3.100 / 60.  3.100
  libavfilter     9. 12.100 /  9. 12.100
  libswscale      7.  5.100 /  7.  5.100
  libswresample   4. 12.100 /  4. 12.100
  libpostproc    57.  3.100 / 57.  3.100
Input #0, mov,mp4,m4a,3gp,3g2,mj2, from 'Test-Video/Celeb-real/id8_0006.mp4':
  Metadata:
    major_brand     : isom
    minor_version   : 512
    compatible_brands: isomiso2mp41
    encoder         : Lavf58.3.100
  Duration: 00:00:17.13, start: 0.000000, bitrate: 1455 kb/s
  Stream #0:0[0x1](und): Video: mpeg4 (Simple Profile) (mp4v / 0x7634706D), yuv420p, 942x500 [SAR 1:1 DAR 471:250], 1453 kb/s, 30 fps, 30 tbr, 90k tbn (default)
    Metadata:
      handler_name    : VideoHandler
      vendor_id       : [0][0][0][0]
Output #0, wav, to '/tmp/tmpy7mh0ts5/id8_0006/audio.wav':
[out#0/wav @ 0x63d7a34486c0] Output file does not contain any stream
Error opening output file /tmp/tmpy7mh0ts5/id8_0006/audio.wav.
Error opening output files: Invalid argument
ffmpeg version 6.1.1-3ubuntu5+esm6 Copyright (c) 2000-2023 the FFmpeg developers
  built with gcc 13 (Ubuntu 13.3.0-6ubuntu2~24.04)
  configuration: --prefix=/usr --extra-version=3ubuntu5+esm6 --toolchain=hardened --libdir=/usr/lib/x86_64-linux-gnu --incdir=/usr/include/x86_64-linux-gnu --arch=amd64 --enable-gpl --disable-stripping --disable-omx --enable-gnutls --enable-libaom --enable-libass --enable-libbs2b --enable-libcaca --enable-libcdio --enable-libcodec2 --enable-libdav1d --enable-libflite --enable-libfontconfig --enable-libfreetype --enable-libfribidi --enable-libglslang --enable-libgme --enable-libgsm --enable-libharfbuzz --enable-libmp3lame --enable-libmysofa --enable-libopenjpeg --enable-libopenmpt --enable-libopus --enable-librubberband --enable-libshine --enable-libsnappy --enable-libsoxr --enable-libspeex --enable-libtheora --enable-libtwolame --enable-libvidstab --enable-libvorbis --enable-libvpx --enable-libwebp --enable-libx265 --enable-libxml2 --enable-libxvid --enable-libzimg --enable-openal --enable-opencl --enable-opengl --disable-sndio --enable-libvpl --disable-libmfx --enable-libdc1394 --enable-libdrm --enable-libiec61883 --enable-chromaprint --enable-frei0r --enable-ladspa --enable-libbluray --enable-libjack --enable-libpulse --enable-librabbitmq --enable-librist --enable-libsrt --enable-libssh --enable-libsvtav1 --enable-libx264 --enable-libzmq --enable-libzvbi --enable-lv2 --enable-sdl2 --enable-libplacebo --enable-librav1e --enable-pocketsphinx --enable-librsvg --enable-libjxl --enable-shared
  libavutil      58. 29.100 / 58. 29.100
  libavcodec     60. 31.102 / 60. 31.102
  libavformat    60. 16.100 / 60. 16.100
  libavdevice    60.  3.100 / 60.  3.100
  libavfilter     9. 12.100 /  9. 12.100
  libswscale      7.  5.100 /  7.  5.100
  libswresample   4. 12.100 /  4. 12.100
  libpostproc    57.  3.100 / 57.  3.100
Input #0, mov,mp4,m4a,3gp,3g2,mj2, from 'Test-Video/Celeb-real/id33_0001.mp4':
  Metadata:
    major_brand     : isom
    minor_version   : 512
    compatible_brands: isomiso2mp41
    encoder         : Lavf58.3.100
  Duration: 00:00:14.87, start: 0.000000, bitrate: 933 kb/s
  Stream #0:0[0x1](und): Video: mpeg4 (Simple Profile) (mp4v / 0x7634706D), yuv420p, 848x466 [SAR 1:1 DAR 424:233], 931 kb/s, 30 fps, 30 tbr, 90k tbn (default)
    Metadata:
      handler_name    : VideoHandler
      vendor_id       : [0][0][0][0]
Stream mapping:
  Stream #0:0 -> #0:0 (mpeg4 (native) -> mjpeg (native))
Press [q] to stop, [?] for help
[swscaler @ 0x586304ca3980] deprecated pixel format used, make sure you did set range correctly
Output #0, image2, to '/tmp/tmpu8myrybw/id33_0001/%06d.jpg':
  Metadata:
    major_brand     : isom
    minor_version   : 512
    compatible_brands: isomiso2mp41
    encoder         : Lavf60.16.100
  Stream #0:0(und): Video: mjpeg, yuvj420p(pc, progressive), 848x466 [SAR 1:1 DAR 424:233], q=2-31, 200 kb/s, 30 fps, 30 tbn (default)
    Metadata:
      handler_name    : VideoHandler
      vendor_id       : [0][0][0][0]
      encoder         : Lavc60.31.102 mjpeg
    Side data:
      cpb: bitrate max/min/avg: 0/0/200000 buffer size: 0 vbv_delay: N/A
frame=    0 fps=0.0 q=4.3 size=       0kB time=00:00:00.00 bitrate=N/A speed=   0x    frame=  431 fps=0.0 q=24.8 size=N/A time=00:00:14.36 bitrate=N/A speed=28.3x    [out#0/image2 @ 0x586304c3ab80] video:4035kB audio:0kB subtitle:0kB other streams:0kB global headers:0kB muxing overhead: unknown
frame=  446 fps=0.0 q=24.8 Lsize=N/A time=00:00:14.83 bitrate=N/A speed=28.2x    
ffmpeg version 6.1.1-3ubuntu5+esm6 Copyright (c) 2000-2023 the FFmpeg developers
  built with gcc 13 (Ubuntu 13.3.0-6ubuntu2~24.04)
  configuration: --prefix=/usr --extra-version=3ubuntu5+esm6 --toolchain=hardened --libdir=/usr/lib/x86_64-linux-gnu --incdir=/usr/include/x86_64-linux-gnu --arch=amd64 --enable-gpl --disable-stripping --disable-omx --enable-gnutls --enable-libaom --enable-libass --enable-libbs2b --enable-libcaca --enable-libcdio --enable-libcodec2 --enable-libdav1d --enable-libflite --enable-libfontconfig --enable-libfreetype --enable-libfribidi --enable-libglslang --enable-libgme --enable-libgsm --enable-libharfbuzz --enable-libmp3lame --enable-libmysofa --enable-libopenjpeg --enable-libopenmpt --enable-libopus --enable-librubberband --enable-libshine --enable-libsnappy --enable-libsoxr --enable-libspeex --enable-libtheora --enable-libtwolame --enable-libvidstab --enable-libvorbis --enable-libvpx --enable-libwebp --enable-libx265 --enable-libxml2 --enable-libxvid --enable-libzimg --enable-openal --enable-opencl --enable-opengl --disable-sndio --enable-libvpl --disable-libmfx --enable-libdc1394 --enable-libdrm --enable-libiec61883 --enable-chromaprint --enable-frei0r --enable-ladspa --enable-libbluray --enable-libjack --enable-libpulse --enable-librabbitmq --enable-librist --enable-libsrt --enable-libssh --enable-libsvtav1 --enable-libx264 --enable-libzmq --enable-libzvbi --enable-lv2 --enable-sdl2 --enable-libplacebo --enable-librav1e --enable-pocketsphinx --enable-librsvg --enable-libjxl --enable-shared
  libavutil      58. 29.100 / 58. 29.100
  libavcodec     60. 31.102 / 60. 31.102
  libavformat    60. 16.100 / 60. 16.100
  libavdevice    60.  3.100 / 60.  3.100
  libavfilter     9. 12.100 /  9. 12.100
  libswscale      7.  5.100 /  7.  5.100
  libswresample   4. 12.100 /  4. 12.100
  libpostproc    57.  3.100 / 57.  3.100
Input #0, mov,mp4,m4a,3gp,3g2,mj2, from 'Test-Video/Celeb-real/id33_0001.mp4':
  Metadata:
    major_brand     : isom
    minor_version   : 512
    compatible_brands: isomiso2mp41
    encoder         : Lavf58.3.100
  Duration: 00:00:14.87, start: 0.000000, bitrate: 933 kb/s
  Stream #0:0[0x1](und): Video: mpeg4 (Simple Profile) (mp4v / 0x7634706D), yuv420p, 848x466 [SAR 1:1 DAR 424:233], 931 kb/s, 30 fps, 30 tbr, 90k tbn (default)
    Metadata:
      handler_name    : VideoHandler
      vendor_id       : [0][0][0][0]
Output #0, wav, to '/tmp/tmpu8myrybw/id33_0001/audio.wav':
[out#0/wav @ 0x5fd106eebc80] Output file does not contain any stream
Error opening output file /tmp/tmpu8myrybw/id33_0001/audio.wav.
Error opening output files: Invalid argument
ffmpeg version 6.1.1-3ubuntu5+esm6 Copyright (c) 2000-2023 the FFmpeg developers
  built with gcc 13 (Ubuntu 13.3.0-6ubuntu2~24.04)
  configuration: --prefix=/usr --extra-version=3ubuntu5+esm6 --toolchain=hardened --libdir=/usr/lib/x86_64-linux-gnu --incdir=/usr/include/x86_64-linux-gnu --arch=amd64 --enable-gpl --disable-stripping --disable-omx --enable-gnutls --enable-libaom --enable-libass --enable-libbs2b --enable-libcaca --enable-libcdio --enable-libcodec2 --enable-libdav1d --enable-libflite --enable-libfontconfig --enable-libfreetype --enable-libfribidi --enable-libglslang --enable-libgme --enable-libgsm --enable-libharfbuzz --enable-libmp3lame --enable-libmysofa --enable-libopenjpeg --enable-libopenmpt --enable-libopus --enable-librubberband --enable-libshine --enable-libsnappy --enable-libsoxr --enable-libspeex --enable-libtheora --enable-libtwolame --enable-libvidstab --enable-libvorbis --enable-libvpx --enable-libwebp --enable-libx265 --enable-libxml2 --enable-libxvid --enable-libzimg --enable-openal --enable-opencl --enable-opengl --disable-sndio --enable-libvpl --disable-libmfx --enable-libdc1394 --enable-libdrm --enable-libiec61883 --enable-chromaprint --enable-frei0r --enable-ladspa --enable-libbluray --enable-libjack --enable-libpulse --enable-librabbitmq --enable-librist --enable-libsrt --enable-libssh --enable-libsvtav1 --enable-libx264 --enable-libzmq --enable-libzvbi --enable-lv2 --enable-sdl2 --enable-libplacebo --enable-librav1e --enable-pocketsphinx --enable-librsvg --enable-libjxl --enable-shared
  libavutil      58. 29.100 / 58. 29.100
  libavcodec     60. 31.102 / 60. 31.102
  libavformat    60. 16.100 / 60. 16.100
  libavdevice    60.  3.100 / 60.  3.100
  libavfilter     9. 12.100 /  9. 12.100
  libswscale      7.  5.100 /  7.  5.100
  libswresample   4. 12.100 /  4. 12.100
  libpostproc    57.  3.100 / 57.  3.100
Input #0, mov,mp4,m4a,3gp,3g2,mj2, from 'Test-Video/Celeb-real/id61_0009.mp4':
  Metadata:
    major_brand     : isom
    minor_version   : 512
    compatible_brands: isomiso2mp41
    encoder         : Lavf58.3.100
  Duration: 00:00:15.23, start: 0.000000, bitrate: 1156 kb/s
  Stream #0:0[0x1](und): Video: mpeg4 (Simple Profile) (mp4v / 0x7634706D), yuv420p, 856x478 [SAR 1:1 DAR 428:239], 1154 kb/s, 30 fps, 30 tbr, 90k tbn (default)
    Metadata:
      handler_name    : VideoHandler
      vendor_id       : [0][0][0][0]
Stream mapping:
  Stream #0:0 -> #0:0 (mpeg4 (native) -> mjpeg (native))
Press [q] to stop, [?] for help
[swscaler @ 0x5fa293cfc040] deprecated pixel format used, make sure you did set range correctly
Output #0, image2, to '/tmp/tmpn5m2jfvk/id61_0009/%06d.jpg':
  Metadata:
    major_brand     : isom
    minor_version   : 512
    compatible_brands: isomiso2mp41
    encoder         : Lavf60.16.100
  Stream #0:0(und): Video: mjpeg, yuvj420p(pc, progressive), 856x478 [SAR 1:1 DAR 428:239], q=2-31, 200 kb/s, 30 fps, 30 tbn (default)
    Metadata:
      handler_name    : VideoHandler
      vendor_id       : [0][0][0][0]
      encoder         : Lavc60.31.102 mjpeg
    Side data:
      cpb: bitrate max/min/avg: 0/0/200000 buffer size: 0 vbv_delay: N/A
frame=    0 fps=0.0 q=5.5 size=       0kB time=00:00:00.00 bitrate=N/A speed=   0x    frame=  396 fps=0.0 q=24.8 size=N/A time=00:00:13.20 bitrate=N/A speed=  26x    [out#0/image2 @ 0x5fa293c95740] video:6010kB audio:0kB subtitle:0kB other streams:0kB global headers:0kB muxing overhead: unknown
frame=  457 fps=0.0 q=24.8 Lsize=N/A time=00:00:15.20 bitrate=N/A speed=25.9x    
ffmpeg version 6.1.1-3ubuntu5+esm6 Copyright (c) 2000-2023 the FFmpeg developers
  built with gcc 13 (Ubuntu 13.3.0-6ubuntu2~24.04)
  configuration: --prefix=/usr --extra-version=3ubuntu5+esm6 --toolchain=hardened --libdir=/usr/lib/x86_64-linux-gnu --incdir=/usr/include/x86_64-linux-gnu --arch=amd64 --enable-gpl --disable-stripping --disable-omx --enable-gnutls --enable-libaom --enable-libass --enable-libbs2b --enable-libcaca --enable-libcdio --enable-libcodec2 --enable-libdav1d --enable-libflite --enable-libfontconfig --enable-libfreetype --enable-libfribidi --enable-libglslang --enable-libgme --enable-libgsm --enable-libharfbuzz --enable-libmp3lame --enable-libmysofa --enable-libopenjpeg --enable-libopenmpt --enable-libopus --enable-librubberband --enable-libshine --enable-libsnappy --enable-libsoxr --enable-libspeex --enable-libtheora --enable-libtwolame --enable-libvidstab --enable-libvorbis --enable-libvpx --enable-libwebp --enable-libx265 --enable-libxml2 --enable-libxvid --enable-libzimg --enable-openal --enable-opencl --enable-opengl --disable-sndio --enable-libvpl --disable-libmfx --enable-libdc1394 --enable-libdrm --enable-libiec61883 --enable-chromaprint --enable-frei0r --enable-ladspa --enable-libbluray --enable-libjack --enable-libpulse --enable-librabbitmq --enable-librist --enable-libsrt --enable-libssh --enable-libsvtav1 --enable-libx264 --enable-libzmq --enable-libzvbi --enable-lv2 --enable-sdl2 --enable-libplacebo --enable-librav1e --enable-pocketsphinx --enable-librsvg --enable-libjxl --enable-shared
  libavutil      58. 29.100 / 58. 29.100
  libavcodec     60. 31.102 / 60. 31.102
  libavformat    60. 16.100 / 60. 16.100
  libavdevice    60.  3.100 / 60.  3.100
  libavfilter     9. 12.100 /  9. 12.100
  libswscale      7.  5.100 /  7.  5.100
  libswresample   4. 12.100 /  4. 12.100
  libpostproc    57.  3.100 / 57.  3.100
Input #0, mov,mp4,m4a,3gp,3g2,mj2, from 'Test-Video/Celeb-real/id61_0009.mp4':
  Metadata:
    major_brand     : isom
    minor_version   : 512
    compatible_brands: isomiso2mp41
    encoder         : Lavf58.3.100
  Duration: 00:00:15.23, start: 0.000000, bitrate: 1156 kb/s
  Stream #0:0[0x1](und): Video: mpeg4 (Simple Profile) (mp4v / 0x7634706D), yuv420p, 856x478 [SAR 1:1 DAR 428:239], 1154 kb/s, 30 fps, 30 tbr, 90k tbn (default)
    Metadata:
      handler_name    : VideoHandler
      vendor_id       : [0][0][0][0]
Output #0, wav, to '/tmp/tmpn5m2jfvk/id61_0009/audio.wav':
[out#0/wav @ 0x5d6b362ee840] Output file does not contain any stream
Error opening output file /tmp/tmpn5m2jfvk/id61_0009/audio.wav.
Error opening output files: Invalid argument
